<?xml version="1.0" standalone="no"?>
<!DOCTYPE svg PUBLIC "-//W3C//DTD SVG 20010904//EN"
 "http://www.w3.org/TR/2001/REC-SVG-20010904/DTD/svg10.dtd">
<svg version="1.0" xmlns="http://www.w3.org/2000/svg"
 width="512.000000pt" height="512.000000pt" viewBox="0 0 512.000000 512.000000"
 preserveAspectRatio="xMidYMid meet">

<g transform="translate(0.000000,512.000000) scale(0.100000,-0.100000)"
fill="#000000" stroke="none">
<path d="M2495 4386 c-258 -87 -2326 -821 -2342 -832 -22 -14 -23 -20 -23
-158 0 -123 2 -145 18 -158 9 -9 556 -206 1215 -439 l1198 -422 1197 422 c658
233 1205 430 1214 438 16 14 18 36 18 159 0 138 -1 144 -22 158 -37 23 -2349
836 -2393 841 -22 3 -58 -1 -80 -9z"/>
<path d="M420 2596 l0 -336 95 0 95 0 0 303 0 304 -82 28 c-46 16 -89 30 -95
33 -10 3 -13 -67 -13 -332z"/>
<path d="M1073 2353 c6 -386 13 -444 71 -608 51 -143 104 -225 215 -335 137
-136 270 -209 496 -275 386 -112 1023 -112 1410 0 225 65 364 143 501 279 164
164 245 350 273 625 16 153 15 664 -1 659 -7 -3 -342 -121 -745 -263 l-732
-258 -741 262 c-407 143 -743 261 -746 261 -4 0 -4 -156 -1 -347z"/>
<path d="M455 2161 c-50 -30 -68 -58 -73 -110 -8 -92 61 -159 155 -148 74 8
130 77 120 149 -14 102 -121 160 -202 109z"/>
<path d="M421 1788 c-4 -13 -47 -222 -96 -465 -58 -295 -85 -451 -81 -469 10
-40 67 -89 128 -110 73 -25 224 -25 296 0 64 22 119 73 126 118 4 21 -28 200
-87 488 l-92 455 -93 3 c-88 3 -93 2 -101 -20z"/>
</g>
</svg>
