<?xml version="1.0" standalone="no"?>
<!DOCTYPE svg PUBLIC "-//W3C//DTD SVG 20010904//EN"
 "http://www.w3.org/TR/2001/REC-SVG-20010904/DTD/svg10.dtd">
<svg version="1.0" xmlns="http://www.w3.org/2000/svg"
 width="512.000000pt" height="512.000000pt" viewBox="0 0 512.000000 512.000000"
 preserveAspectRatio="xMidYMid meet">

<g transform="translate(0.000000,512.000000) scale(0.100000,-0.100000)"
fill="#000000" stroke="none">
<path d="M2360 4950 c-383 -48 -743 -208 -1023 -457 -230 -203 -414 -481 -516
-776 -188 -547 -109 -1143 218 -1628 455 -676 1317 -972 2091 -718 214 70 473
218 645 368 440 385 677 991 614 1569 -89 823 -701 1481 -1509 1623 -132 23
-403 33 -520 19z m293 -1016 c33 -22 52 -54 138 -230 55 -112 105 -204 110
-204 47 0 426 -63 448 -75 66 -34 100 -106 86 -182 -6 -32 -34 -65 -173 -206
l-166 -167 37 -218 c40 -238 39 -264 -8 -320 -34 -41 -75 -55 -138 -49 -41 4
-90 25 -234 101 -100 53 -187 96 -193 96 -6 0 -93 -43 -193 -96 -144 -76 -193
-97 -234 -101 -63 -6 -104 8 -138 49 -47 56 -48 85 -10 306 19 111 35 209 35
219 0 11 -72 91 -164 183 -138 139 -166 171 -171 203 -14 76 20 148 86 182 22
12 404 75 450 75 4 0 53 92 108 204 86 176 105 208 138 230 53 36 133 36 186
0z"/>
<path d="M1246 1307 c-18 -40 -89 -191 -157 -337 -108 -232 -124 -272 -124
-317 0 -58 20 -93 75 -131 48 -32 90 -28 305 27 104 27 190 49 191 48 1 -1 38
-81 84 -177 46 -96 89 -185 97 -197 18 -27 90 -63 126 -63 42 0 105 30 126 59
33 47 353 743 344 751 -4 3 -46 12 -93 18 -281 39 -606 166 -861 337 l-80 54
-33 -72z"/>
<path d="M3750 1319 c-162 -110 -389 -216 -585 -272 -107 -31 -281 -67 -323
-67 -17 0 -33 -4 -37 -10 -6 -10 315 -706 346 -751 21 -29 84 -59 126 -59 36
0 108 36 126 63 8 12 51 101 97 197 46 96 84 176 84 177 1 1 87 -20 191 -47
215 -56 257 -60 305 -27 55 37 75 72 75 130 0 46 -18 91 -154 382 -84 182
-156 333 -160 336 -3 3 -44 -21 -91 -52z"/>
</g>
</svg>
